# Blender 4.1.0
# www.blender.org
mtllib 宝石.mtl
o Cube
v 2.873693 1.000000 -0.426934
v 2.873693 -1.000000 -0.426934
v 2.873693 1.000000 0.426934
v 2.873693 -1.000000 0.426934
v 1.833104 1.000000 -0.426934
v 1.833104 -1.000000 -0.426934
v 1.833104 1.000000 0.426934
v 1.833104 -1.000000 0.426934
v 1.749741 -1.000000 0.000000
v 2.951380 1.000000 0.000000
v 1.749741 1.000000 0.000000
v 2.951380 -1.000000 0.000000
v 2.353399 -1.000000 -0.555897
v 2.353399 1.000000 0.594746
v 2.353399 -1.000000 0.594746
v 2.353399 1.000000 -0.555897
v 2.353399 -2.000000 0.000000
v 2.353399 2.000000 0.000000
vn -0.8444 0.5097 0.1649
vn -0.3070 -0.0000 0.9517
vn -0.9815 -0.0000 -0.1916
vn 0.8480 -0.5071 0.1543
vn 0.9838 -0.0000 0.1790
vn 0.2406 -0.0000 -0.9706
vn 0.9838 -0.0000 -0.1790
vn 0.8480 -0.5071 -0.1543
vn -0.9815 -0.0000 0.1916
vn -0.8444 0.5097 -0.1649
vn 0.2117 0.4749 -0.8542
vn -0.2117 -0.4749 -0.8542
vn -0.2406 -0.0000 -0.9706
vn -0.2671 -0.4926 0.8282
vn 0.3070 -0.0000 0.9517
vn 0.2671 0.4926 0.8282
vn -0.2117 0.4749 -0.8542
vn -0.2671 0.4926 0.8282
vn 0.8480 0.5071 0.1543
vn 0.8480 0.5071 -0.1543
vn -0.8444 -0.5097 -0.1649
vn -0.8444 -0.5097 0.1649
vn 0.2671 -0.4926 0.8282
vn 0.2117 -0.4749 -0.8542
vt 0.750000 0.625000
vt 0.875000 0.625000
vt 0.875000 0.750000
vt 0.375000 0.875000
vt 0.625000 0.875000
vt 0.625000 1.000000
vt 0.375000 1.000000
vt 0.375000 0.125000
vt 0.625000 0.125000
vt 0.625000 0.250000
vt 0.375000 0.250000
vt 0.250000 0.625000
vt 0.375000 0.625000
vt 0.375000 0.750000
vt 0.625000 0.625000
vt 0.625000 0.750000
vt 0.375000 0.375000
vt 0.625000 0.375000
vt 0.625000 0.500000
vt 0.375000 0.500000
vt 0.375000 0.000000
vt 0.625000 0.000000
vt 0.875000 0.500000
vt 0.750000 0.500000
vt 0.125000 0.500000
vt 0.250000 0.500000
vt 0.250000 0.750000
vt 0.125000 0.750000
vt 0.750000 0.750000
vt 0.125000 0.625000
s 0
usemtl Material
f 18/1/1 11/2/1 7/3/1
f 15/4/2 14/5/2 7/6/2 8/7/2
f 9/8/3 11/9/3 5/10/3 6/11/3
f 17/12/4 12/13/4 4/14/4
f 12/13/5 10/15/5 3/16/5 4/14/5
f 13/17/6 16/18/6 1/19/6 2/20/6
f 2/20/7 1/19/7 10/15/7 12/13/7
f 2/20/8 12/13/8 17/12/8
f 8/21/9 7/22/9 11/9/9 9/8/9
f 5/23/10 11/2/10 18/1/10
f 1/19/11 16/24/11 18/1/11
f 6/25/12 13/26/12 17/12/12
f 6/11/13 5/10/13 16/18/13 13/17/13
f 17/12/14 15/27/14 8/28/14
f 4/14/15 3/16/15 14/5/15 15/4/15
f 18/1/16 14/29/16 3/16/16
f 16/24/17 5/23/17 18/1/17
f 14/29/18 18/1/18 7/3/18
f 10/15/19 18/1/19 3/16/19
f 10/15/20 1/19/20 18/1/20
f 9/30/21 6/25/21 17/12/21
f 9/30/22 17/12/22 8/28/22
f 15/27/23 17/12/23 4/14/23
f 13/26/24 2/20/24 17/12/24
o 棱角球
v 0.000000 -1.000000 0.000000
v 0.723600 -0.447215 0.525720
v -0.276385 -0.447215 0.850640
v -0.894425 -0.447215 0.000000
v -0.276385 -0.447215 -0.850640
v 0.723600 -0.447215 -0.525720
v 0.276385 0.447215 0.850640
v -0.723600 0.447215 0.525720
v -0.723600 0.447215 -0.525720
v 0.276385 0.447215 -0.850640
v 0.894425 0.447215 0.000000
v 0.000000 1.000000 0.000000
vn 0.1876 -0.7947 0.5774
vn 0.6071 -0.7947 -0.0000
vn -0.4911 -0.7947 0.3568
vn -0.4911 -0.7947 -0.3568
vn 0.1876 -0.7947 -0.5774
vn 0.9822 -0.1876 -0.0000
vn 0.3035 -0.1876 0.9342
vn -0.7946 -0.1876 0.5774
vn -0.7946 -0.1876 -0.5774
vn 0.3035 -0.1876 -0.9342
vn 0.7946 0.1876 0.5774
vn -0.3035 0.1876 0.9342
vn -0.9822 0.1876 -0.0000
vn -0.3035 0.1876 -0.9342
vn 0.7946 0.1876 -0.5774
vn 0.4911 0.7947 0.3568
vn -0.1876 0.7947 0.5774
vn -0.6071 0.7947 -0.0000
vn -0.1876 0.7947 -0.5774
vn 0.4911 0.7947 -0.3568
vt 0.181819 0.000000
vt 0.272728 0.157461
vt 0.090910 0.157461
vt 0.363637 0.000000
vt 0.454546 0.157461
vt 0.909091 0.000000
vt 1.000000 0.157461
vt 0.818182 0.157461
vt 0.727273 0.000000
vt 0.636364 0.157461
vt 0.545455 0.000000
vt 0.363637 0.314921
vt 0.181819 0.314921
vt 0.909091 0.314921
vt 0.727273 0.314921
vt 0.545455 0.314921
vt 0.000000 0.314921
vt 0.272728 0.472382
vt 0.090910 0.472382
vt 0.818182 0.472382
vt 0.636364 0.472382
vt 0.454546 0.472382
s 0
f 19/31/25 20/32/25 21/33/25
f 20/32/26 19/34/26 24/35/26
f 19/36/27 21/37/27 22/38/27
f 19/39/28 22/38/28 23/40/28
f 19/41/29 23/40/29 24/35/29
f 20/32/30 24/35/30 29/42/30
f 21/33/31 20/32/31 25/43/31
f 22/38/32 21/37/32 26/44/32
f 23/40/33 22/38/33 27/45/33
f 24/35/34 23/40/34 28/46/34
f 20/32/35 29/42/35 25/43/35
f 21/33/36 25/43/36 26/47/36
f 22/38/37 26/44/37 27/45/37
f 23/40/38 27/45/38 28/46/38
f 24/35/39 28/46/39 29/42/39
f 25/43/40 29/42/40 30/48/40
f 26/47/41 25/43/41 30/49/41
f 27/45/42 26/44/42 30/50/42
f 28/46/43 27/45/43 30/51/43
f 29/42/44 28/46/44 30/52/44
